<svg width="1810" height="372" viewBox="0 0 1810 372" fill="none" xmlns="http://www.w3.org/2000/svg">
<path d="M499.05 173C499.3 197.97 500.07 224.44 488.5 247.44C467.19 289.82 416.43 296.81 374.24 291.33C327.78 285.3 298.69 254.43 296.6 206.99C295.9 191.09 295.647 175.177 295.84 159.25C295.99 146.92 296.8 133.69 299.87 122.29C312.69 74.71 355.8 56.75 401.5 58.25C446.44 59.73 486.09 79.12 496.17 126.4C499.3 141.06 498.88 156.19 499.05 173ZM394.89 244.04C413.19 244.69 427.88 236.01 433.11 217.95C434.183 214.243 434.897 208.223 435.25 199.89C436.017 181.51 435.853 163.137 434.76 144.77C433.61 125.62 423.78 109.82 403.51 107.17C397.51 106.39 391.447 106.88 385.32 108.64C367.93 113.65 360.39 129.09 359.83 146C359.183 165.76 359.317 186.597 360.23 208.51C360.443 213.663 361.797 218.807 364.29 223.94C370.24 236.18 381.27 243.55 394.89 244.04Z" fill="white"/>
<path d="M629.25 243.95C635.87 244 643.83 242.98 649.68 240.29C661.63 234.79 666.1 224.78 669.96 212.59C671.56 207.52 675.75 206.68 680.75 206.7C694.35 206.76 707.95 206.77 721.55 206.73C728.95 206.71 733.53 207.34 733.03 216.02C729.91 269.68 681.18 292.38 633.51 292.98C614.8 293.22 595.81 290.77 578.76 283.46C545.67 269.24 529.95 238.98 529.19 204C528.803 186.067 528.783 168.137 529.13 150.21C529.29 142.05 529.85 135.42 530.81 130.32C536.93 97.7267 555.477 75.88 586.45 64.78C621.01 52.39 668.38 56.5 699.54 76.41C719.42 89.1033 730.493 107.297 732.76 130.99C733.27 136.35 733.98 144.17 726 144.21C717.473 144.263 702.49 144.277 681.05 144.25C677.983 144.25 675.687 143.8 674.16 142.9C669.2 140 668.49 133.67 666.25 128.16C661.68 116.89 653.93 110.13 641.49 108.09C608.43 102.65 593.13 120.15 592.53 151.31C592.257 165.63 592.307 180.983 592.68 197.37C592.91 207.36 593.87 218.63 598.53 227.03C604.717 238.19 614.957 243.83 629.25 243.95Z" fill="white"/>
<path d="M197.97 183.01C198.95 153.057 199.933 123.06 200.92 93.02C201.087 87.94 201.657 83.98 202.63 81.14C209.83 60.17 230.14 61.07 249.94 62.06C255.62 62.34 258.73 64.95 258.74 70.75C258.76 140.497 258.76 210.247 258.74 280C258.733 285.913 255.737 288.927 249.75 289.04C192.96 290.14 130.09 289.05 79.2601 289.33C70.2001 289.38 69.0001 283.96 69.0001 276C68.9868 214.413 68.9968 152.833 69.0301 91.26C69.0501 65.86 92.0701 58.98 113.11 62.46C122.23 63.97 126.65 71.57 131.44 79.12C153.427 113.767 175.47 148.433 197.57 183.12C197.596 183.157 197.633 183.186 197.676 183.201C197.719 183.217 197.765 183.218 197.809 183.206C197.853 183.194 197.892 183.169 197.921 183.134C197.95 183.099 197.967 183.055 197.97 183.01Z" fill="white"/>
<path d="M864.48 115.12C875.25 117.85 878.98 125.13 878.99 135.58C879.017 184.113 879.01 232.627 878.97 281.12C878.97 284.647 877.16 287.09 873.54 288.45C872.227 288.943 869.88 289.17 866.5 289.13C853.707 288.97 840.91 288.867 828.11 288.82C821.95 288.8 816.49 287.17 816.5 280.26C816.513 230 816.51 179.747 816.49 129.5C816.48 121.39 815.66 115 806.26 114.88C799.467 114.787 784.94 114.727 762.68 114.7C756.93 114.69 752.04 113.73 751.41 107.41C750.91 102.337 750.84 96.77 751.2 90.71C751.96 77.98 758.17 67.46 770.72 63.59C774.14 62.5367 780.547 62.01 789.94 62.01C837.387 62.0033 884.833 62 932.28 62C940.24 62 944.47 62.92 944.62 71.77C944.813 82.8033 944.827 93.8567 944.66 104.93C944.51 115.5 938 114.62 929.18 114.7C907.633 114.9 886.08 114.94 864.52 114.82C863.68 114.813 863.667 114.913 864.48 115.12Z" fill="white"/>
<path d="M1260.14 210.59C1268.01 213.857 1271.96 219.663 1271.97 228.01C1272.01 244.09 1272.02 260.2 1271.99 276.34C1271.98 286.52 1270.6 289.04 1260.27 289C1246.94 288.947 1233.6 288.943 1220.25 288.99C1213.23 289.01 1211.01 283.97 1211.01 277.53C1211 217.27 1210.99 157.013 1211 96.76C1211 89.6467 1211.5 84.53 1212.49 81.41C1216.51 68.81 1227.19 62.69 1240.42 62.55C1264.65 62.3 1290.02 62.05 1317.49 62.67C1362.99 63.68 1401.42 88.35 1399.95 138.55C1399.26 162.33 1388.7 182.2 1368.31 195.11C1363.28 198.29 1360.74 199.74 1364.26 206.11C1377.45 229.99 1390.62 253.867 1403.77 277.74C1406.88 283.37 1404.52 288.62 1397.75 288.69C1383.31 288.817 1368.87 288.92 1354.43 289C1346.98 289.04 1342.73 287.1 1339.39 280.62C1328.07 258.667 1316.78 236.697 1305.53 214.71C1303.59 210.93 1299.57 210.11 1295.23 210.04C1283.55 209.867 1271.88 209.897 1260.23 210.13C1259.46 210.143 1259.43 210.297 1260.14 210.59ZM1279.13 161.87C1283.92 162.19 1293.79 162.283 1308.75 162.15C1314.09 162.097 1318.9 161.1 1323.19 159.16C1335.67 153.5 1339.46 138.29 1335.36 126.03C1331.3 113.9 1319.81 109.05 1308.25 109.02C1291.37 108.987 1274.54 108.987 1257.77 109.02C1257.69 109.009 1257.6 109.03 1257.54 109.079C1257.47 109.128 1257.43 109.201 1257.41 109.282C1257.4 109.364 1257.42 109.447 1257.46 109.516C1257.51 109.585 1257.58 109.633 1257.66 109.65C1274.16 115.68 1270.38 134.72 1270.32 148.17C1270.3 154.98 1271.47 161.37 1279.13 161.87Z" fill="white"/>
<path d="M1062.25 292.84C1024.17 291.18 988.68 275.69 976.67 236.59C973.75 227.09 972.227 217.477 972.1 207.75C971.893 191.83 971.877 153.413 972.05 92.5C972.07 85.1 973.52 79.15 978.26 73.42C989.25 60.14 1006.47 61.98 1022 62.84C1028.44 63.19 1033.59 64.06 1033.59 71.5C1033.54 114.753 1033.51 158.007 1033.5 201.26C1033.5 207.767 1033.83 212.567 1034.5 215.66C1038.77 235.49 1054.1 244.51 1073.74 242.83C1088.5 241.57 1100.76 234.15 1104.91 219.47C1105.93 215.877 1106.45 209.26 1106.46 199.62C1106.53 166.593 1106.53 133.567 1106.47 100.54C1106.46 92.4 1106.95 86.5866 1107.94 83.1C1114.76 59.13 1139.12 62.63 1159.25 62.85C1167.49 62.94 1167.99 68.23 1167.99 75.28C1168.01 120.44 1168.01 165.597 1167.99 210.75C1167.98 213.75 1167.61 217.833 1166.86 223C1163.59 245.467 1153.11 263.023 1135.42 275.67C1114.93 290.31 1087.51 293.94 1062.25 292.84Z" fill="white"/>
<path d="M1474.6 251.38C1488.95 257.79 1481.95 273.03 1477.36 283.14C1475.29 287.687 1471.67 289.937 1466.49 289.89C1453.77 289.79 1441.04 289.837 1428.3 290.03C1422.05 290.12 1415 287.8 1417.93 279.72C1442.93 210.773 1467.99 141.847 1493.11 72.94C1495.66 65.9733 1500.62 62.5133 1507.99 62.56C1523.12 62.6667 1538.23 62.73 1553.34 62.75C1561.53 62.76 1567.08 64.02 1569.95 71.85C1605.91 170.09 1631.07 239.257 1645.44 279.35C1647.49 285.09 1644.19 289.97 1638 289.98C1624 290.007 1610 290.01 1595.99 289.99C1590.84 289.983 1587.33 287.38 1585.46 282.18C1580.09 267.24 1574.68 252.317 1569.21 237.41C1569.08 237.077 1568.85 236.967 1568.52 237.08C1538.17 247.593 1506.91 252.167 1474.74 250.8C1474.67 250.79 1474.59 250.808 1474.53 250.85C1474.47 250.892 1474.43 250.955 1474.41 251.027C1474.39 251.099 1474.4 251.175 1474.44 251.24C1474.47 251.305 1474.53 251.355 1474.6 251.38Z" fill="white"/>
</svg>
