<svg version="1.2" xmlns="http://www.w3.org/2000/svg" viewBox="0 0 286 512" width="286" height="512">
	<title>trace (2)-svg</title>
	<style>
		.s0 { fill: #ececec } 
		.s1 { fill: #fbfbfb } 
	</style>
	<path id="Layer" fill-rule="evenodd" class="s0" d="m13.7 325.3c0.2 4.2 0.2 11.2 0 15.4-0.1 4.3-0.3 0.8-0.3-7.7 0-8.5 0.2-12 0.3-7.8zm68 11c0.2 1.6 0.2 4 0 5.5-0.2 1.6-0.4 0.3-0.4-2.7 0-3 0.2-4.3 0.4-2.8zm193 14c0.2 1.6 0.2 4 0 5.5-0.2 1.6-0.4 0.3-0.4-2.7 0-3 0.2-4.3 0.4-2.8z"/>
	<path id="Layer" fill-rule="evenodd" class="s1" d="m207.9 3.4c-10 4.8-21.7 12.6-27.8 18.4-4.7 4.6-15 19.3-19 27.2-1.7 3.3-2.1 5.5-1.8 11.1l0.2 7 3.9 1.9c2.2 1 5.2 2.1 6.8 2.4 3.6 0.8 4.1 2.4 5.8 22.4 3 33 2.2 30.1 8.3 31.9 7.7 2.4 13.2 4.5 14.4 5.7 0.7 0.7 1.8 1.3 2.5 1.3 0.7 0 2.1 0.9 3.1 2 1.8 2 1.8 2-0.6 3.9-1.3 1-3 1.8-3.6 1.8-0.7 0-1.2 0.4-1.2 0.9 0 0.9-9.7 4.3-15.5 5.5l-3.3 0.7 0.6 7.9c0.4 4.3 1.1 13.5 1.6 20.5 0.6 6.9 1.5 18.9 2 26.7 0.4 7.7 1.7 20.8 2.8 29 1.1 8.2 1.8 16 1.4 17.3-0.5 2.3-0.6 2.3-2.5 0.6-1.1-1-12.5-14.9-25.3-30.9-12.9-16-28-34.6-33.6-41.3-5.6-6.6-13.3-16.1-17.1-20.9-3.7-4.9-11.3-14.2-16.8-20.8-5.5-6.5-10.3-12.6-10.6-13.5-0.3-0.8-2.6-4.6-5.2-8.4-2.5-3.7-5.1-8.5-5.7-10.6-1.8-5.8-10.5-22.3-12.8-24.4-2.5-2.3-13-4.1-17.5-3.1-6 1.5-6 1.5-3.8 4.3 1.1 1.4 2 3.1 2 3.8 0 0.7 0.7 1.7 1.5 2.1 2.4 1.4 5.3 14.3 5.3 23.6v8.2l-8.3-0.3-8.3-0.3 3.9-3 3.9-3.1-3.1-1.4c-1.7-0.9-3.3-1.9-3.5-2.3-0.1-0.4-0.9-0.7-1.6-0.7-0.7 0-1.7-0.6-2.1-1.3-0.8-1.2-5.7-5.1-11.8-9.3l-3.2-2.3-3.2 3.8c-2.9 3.3-3.4 4.6-3.9 11-0.8 8.8-2.1 13.3-4.2 14.5-1.4 0.8-1.4 1.9 0.6 12.8 5.1 29.3 5.9 33.7 6.4 38.7 0.4 3 0.9 6.5 1.2 8l0.4 2.6 13.7 0.3c9.9 0.2 13.9 0.6 14.1 1.5 0.3 0.7 1 1.2 1.6 1.2 0.6 0.1 3.7 1.3 6.8 2.8 5.2 2.6 5.5 2.9 3.4 3.5-4.7 1.4-18.9 6.6-22.7 8.4l-3.9 1.8h6.3 6.2l-2.3 2.5c-1.2 1.3-2.7 2.4-3.4 2.4-1.6 0-10.9 4.6-11.6 5.8-0.3 0.5-1.7 1-3.1 1-2.1 0-2.3 0.3-1.9 2.6 0.3 1.5 1 8.2 1.6 14.9 0.6 6.6 1.5 15.2 2 18.9 0.4 3.7 0.8 13.8 0.9 22.3 0 8.6 0.3 19.8 0.6 25l0.7 9.4 4.4-0.6c3.9-0.5 4.3-0.4 3 0.8-0.8 0.8-2.9 2.3-4.7 3.3-3.1 1.8-3.2 2.1-2.4 5.8 0.5 2.1 0.9 17 0.9 33 0.1 33.5 1 53.5 2.6 56.6 1.2 2.6 3.1 3.2 11.4 4.1 5.1 0.5 7.1 0.3 10.4-1.2 2.2-0.9 4.3-2.1 4.6-2.6 0.3-0.5 3.9-3.4 8-6.5 10.3-7.8 18.1-14.9 22.9-20.9 6.1-7.6 6.5-11.7 5.3-57.6-1.1-47.2-0.4-72.4 2.3-72.4 0.4 0 5.4 6.1 10.9 13.4 10.2 13.4 19.3 24.3 23.4 27.9 1.2 1.1 3.7 4.5 5.5 7.5l3.3 5.6 1.2-4.6 1.2-4.6-0.5 5.7c-0.4 5.2-0.2 6.2 3.6 13.1 2.3 4.1 6.7 11.5 9.8 16.4 3 5 6.7 11.5 8.2 14.5l2.5 5.5-1.1 22.4c-0.7 12.3-1.6 27.4-2.1 33.6-1.1 13.7-1.3 38.9-0.5 44.1 1.1 6.3 1.2 6.5 3.7 5.3 2.6-1.2 2.4-0.3 6.6-35.9 3.6-30.7 4.7-40 5.1-40.4 0.1-0.1 1.7 0.7 3.5 1.9 3 2.1 7.4 10.6 6.4 12.3-0.2 0.4-2 13.3-3.8 28.8-1.9 15.4-4 31.3-4.5 35.3-0.6 4-1.3 18-1.5 31.1-0.3 21.2-0.2 23.5 1 21.3 2.4-3.9 3.4-8.9 5.4-25 2.9-24.5 7.7-61.6 8.3-65 0.4-2.7 0.9-3.2 3.1-3.1 1.5 0 3.2 0.3 3.9 0.7 1.4 0.9 7.1 13 17.2 36.6 9.3 21.6 9.8 22.6 16.4 32.2 7.1 10.2 9.3 10.9 21.9 6.6 8.9-3.1 12.6-5.8 12.6-9.4 0.1-1.4-0.3-2.8-0.9-3.2-0.5-0.3-1-1.6-1-2.9 0-1.3-0.4-2.6-0.9-2.9-0.6-0.3-1-2.3-1-4.3 0-2.1-0.5-3.9-1-4.1-0.6-0.2-0.8-1.1-0.4-2 0.5-1.3 2 0.4 6.4 7 6.6 10.1 6.4 10.1 14.9 1.6 11.4-11.6 12.7-16.1 10.1-35.7-5-38.4-5.1-38.8-6.6-38.2-0.8 0.3-4.3 0.8-7.7 1.2l-6.2 0.5 0.7-6.7c0.4-3.7 1.1-7.4 1.6-8.3 0.4-0.9 0.8-2.8 0.8-4.2 0-1.3 0.4-3.2 0.9-4.1 0.5-1 1.4-4.4 2.1-7.6 0.7-3.2 1.7-6.3 2.2-7 1.3-1.7 0.3-16.6-2.2-34.2-1.9-13.5-2.7-19.9-8.3-62.2-1.5-11.1-3.2-19.9-4.1-21.3-0.8-1.4-10.8-11.7-22.2-23-11.5-11.4-20.8-21.1-20.8-21.6 0-0.6-0.5-1.1-1.2-1.1-0.7 0-3.1-2-5.4-4.6-5.4-6-3.5-6.5 5.1-1.2 3.5 2.1 6.8 3.9 7.4 3.9 1.3 0 7.8 5 13.5 10.3 4.1 3.8 20.1 14.9 21.5 14.9 0.3 0 0.4-0.9 0.2-2.1-1.1-7.3-7.1-62.2-7.6-70.7-0.3-5.6-1-12.8-1.5-16-0.4-3.2-1.5-20-2.3-37.4-0.9-17.3-1.8-33.3-2.1-35.4-0.3-2.2-0.9-11.3-1.4-20.4-1.4-27.4-5.5-41.3-12.1-41.3-1.6 0-5.1-0.2-7.8-0.5-4.2-0.4-5.9 0.1-12.8 3.3z"/>
</svg>